# xmcd
#
# Track frame offsets:
#	150
#	14038
#	28027
#	53183
#	76551
#	91404
#	105020
#	121207
#	137450
#	151935
#	175503
#	186898
#
# Disc length: 2647 seconds
#
# Revision: 1
# Processed by: cddbd v1.4PL0 Copyright (c) Steve Scherf et al.
# Submitted via: audiograbber 1.81.01
#
DISCID=810a550c
DTITLE=Harry Belafonte - I Grandi Successi Originali cd1
DYEAR=1900
DGENRE=Pop
TTITLE0=Banana boat sogns (Day-o)
TTITLE1=Come back liza
TTITLE2=Cu cu rucu cu paloma
TTITLE3=Danny Boy
TTITLE4=Hava nageela
TTITLE5=Jamaica farewell
TTITLE6=Man smart (Woman smarter)
TTITLE7=Matilda
TTITLE8=Scarlet ribbons (Por Her hair)
TTITLE9=Mama look a boo boo
TTITLE10=A strange song
TTITLE11=Brown skin girl
EXTD=
EXTT0=
EXTT1=
EXTT2=
EXTT3=
EXTT4=
EXTT5=
EXTT6=
EXTT7=
EXTT8=
EXTT9=
EXTT10=
EXTT11=
PLAYORDER=
